<?xml version="1.0" encoding="UTF-8" standalone="no"?>
<svg
   xmlns:dc="http://purl.org/dc/elements/1.1/"
   xmlns:cc="http://creativecommons.org/ns#"
   xmlns:rdf="http://www.w3.org/1999/02/22-rdf-syntax-ns#"
   xmlns:svg="http://www.w3.org/2000/svg"
   xmlns="http://www.w3.org/2000/svg"
   width="160mm"
   height="100mm"
   viewBox="0 0 160 100"
   version="1.1"
   id="svg209">
  <defs
     id="defs203" />
  <metadata
     id="metadata206">
    <rdf:RDF>
      <cc:Work
         rdf:about="">
        <dc:format>image/svg+xml</dc:format>
        <dc:type
           rdf:resource="http://purl.org/dc/dcmitype/StillImage" />
        <dc:title></dc:title>
      </cc:Work>
    </rdf:RDF>
  </metadata>
  <g
     id="layer1">
    <g
       id="g249"
       transform="matrix(4.4517871,0,0,4.4517871,-596.43316,-367.30206)">
      <g
         id="g182"
         transform="matrix(0.35277777,0,0,-0.35277777,135.0993,103.19914)"
         style="fill:#ffffff">
        <path
           d="m 0,0 v 40.867 c 0,0.534 0.434,0.968 0.965,0.968 h 19.037 c 0.532,0 0.964,-0.434 0.964,-0.968 v -7.115 c 0,-0.534 -0.432,-0.964 -0.964,-0.964 H 9.842 c -0.533,0 -0.965,-0.434 -0.965,-0.968 v -6.605 c 0,-0.533 0.432,-0.964 0.965,-0.964 h 9.988 c 0.532,0 0.965,-0.434 0.965,-0.967 V 16.51 c 0,-0.534 -0.433,-0.966 -0.965,-0.966 H 9.842 c -0.533,0 -0.965,-0.432 -0.965,-0.966 V 0 c 0,-0.532 -0.433,-0.964 -0.965,-0.964 H 0.965 C 0.434,-0.964 0,-0.532 0,0"
           style="fill:#ffffff;fill-opacity:1;fill-rule:nonzero;stroke:none"
           id="path184" />
      </g>
      <g
         id="g186"
         transform="matrix(0.35277777,0,0,-0.35277777,144.77934,103.23668)"
         style="fill:#ffffff">
        <path
           d="m 0,0 v 41.081 c 0,0.475 0.384,0.86 0.858,0.86 h 19.255 c 0.474,0 0.859,-0.385 0.859,-0.86 v -7.33 c 0,-0.474 -0.385,-0.856 -0.859,-0.856 H 9.733 c -0.473,0 -0.857,-0.386 -0.857,-0.861 v -5.801 c 0,-0.475 0.384,-0.86 0.857,-0.86 h 10.211 c 0.475,0 0.859,-0.383 0.859,-0.856 v -6.934 c 0,-0.474 -0.384,-0.86 -0.859,-0.86 H 9.733 C 9.26,16.723 8.876,16.34 8.876,15.866 V 9.499 C 8.876,9.024 9.26,8.64 9.733,8.64 h 10.325 c 0.474,0 0.857,-0.384 0.857,-0.858 V 0 c 0,-0.475 -0.383,-0.858 -0.857,-0.858 H 0.858 C 0.384,-0.858 0,-0.475 0,0"
           style="fill:#ffffff;fill-opacity:1;fill-rule:nonzero;stroke:none"
           id="path188" />
      </g>
      <g
         id="g190"
         transform="matrix(0.35277777,0,0,-0.35277777,163.69462,103.5395)"
         style="fill:#ffffff">
        <path
           d="m 0,0 c -0.528,0 -0.958,0.43 -0.958,0.959 v 24.709 h -0.34 L -7.607,2.738 C -7.721,2.32 -8.101,2.032 -8.53,2.032 h -2.442 c -0.431,0 -0.808,0.288 -0.924,0.703 l -6.365,22.933 H -18.6 V 0.959 C -18.6,0.43 -19.028,0 -19.559,0 h -6.166 c -0.53,0 -0.96,0.43 -0.96,0.959 V 41.84 c 0,0.528 0.43,0.96 0.96,0.96 h 10.816 c 0.454,0 0.845,-0.319 0.939,-0.762 l 3.796,-17.841 h 0.395 l 4.236,17.865 c 0.103,0.431 0.487,0.738 0.934,0.738 H 6.167 c 0.53,0 0.959,-0.43 0.959,-0.959 L 7.182,0.961 C 7.182,0.432 6.751,0 6.222,0 Z"
           style="fill:#ffffff;fill-opacity:1;fill-rule:nonzero;stroke:none"
           id="path192" />
      </g>
      <g
         id="g194"
         transform="matrix(0.35277777,0,0,-0.35277777,167.08633,87.987292)"
         style="fill:#ffffff">
        <path
           d="m 0,0 v 1.716 c 0,0.403 -0.322,0.732 -0.722,0.732 l -88.604,1 c -0.746,0.008 -1.346,0.615 -1.346,1.362 v 1.861 c 0,0.747 0.6,1.354 1.346,1.362 l 88.604,1 c 0.4,0 0.722,0.33 0.722,0.734 v 1.238 0.477 L 4.784,5.893 c 0.074,-0.087 0.074,-0.216 0,-0.303 z"
           style="fill:#ffffff;fill-opacity:1;fill-rule:nonzero;stroke:none"
           id="path196" />
      </g>
    </g>
  </g>
</svg>
