<svg xmlns="http://www.w3.org/2000/svg" viewBox="0 0 125.18 103.99"><defs><style>.cls-1{fill:#2b3990;}.cls-2{fill:#d70e77;}.cls-3{fill:#f7941d;}.cls-4,.cls-7{fill:#fdfdfd;}.cls-4,.cls-8{stroke:#000;}.cls-11,.cls-4,.cls-8{stroke-miterlimit:10;}.cls-4{stroke-width:0.81px;}.cls-5{fill:#d13833;}.cls-6{fill:#0f0e19;}.cls-8{fill:#f4782a;stroke-width:0.23px;}.cls-9{fill:#51367a;}.cls-10,.cls-11{fill:#fff;}.cls-11{font-size:18.07px;stroke:#231f20;stroke-width:0.03px;font-family:BuiltTitlingRg-Regular, Built Titling;}.cls-12{letter-spacing:-0.02em;}.cls-13{letter-spacing:-0.07em;}.cls-14{letter-spacing:-0.01em;}.cls-15{letter-spacing:-0.02em;}.cls-16{letter-spacing:-0.05em;}</style></defs><title>porcentajes-elecciones</title><g id="Layer_2" data-name="Layer 2"><g id="Capa_1" data-name="Capa 1"><rect class="cls-1" x="43.07" y="35.29" width="39.06" height="68.7"/><rect class="cls-2" y="66.27" width="39.06" height="37.72"/><rect class="cls-3" x="85.79" y="72.57" width="39.06" height="31.43"/><path class="cls-2" d="M26.88,63.23a.5.5,0,0,1-.4.31,16.68,16.68,0,0,1-2.55,0c-.24,0-.38-.07-.45-.32l0-17.32.35-.22c1.42.14,3.16-.17,4.54,0a.39.39,0,0,1,.29.14l1.76,7.59,1.91-7.59.29-.14c1.42.11,3-.12,4.39,0,.35,0,.49.1.53.47V63.23c0,.26-.31.3-.52.32a18.22,18.22,0,0,1-2.56,0c-.09,0-.32-.2-.32-.25V52.85c-.19,0-.12,0-.16.16-1,3-1.57,6.37-2.59,9.38a.74.74,0,0,1-.1.22c-.13.12-1.61.23-1.69-.16-.89-3-1.61-6-2.49-9-.06-.19-.09-.51-.26-.62Z"/><path class="cls-2" d="M20.91,45.78l0,3.57-.15.13-4.67.08a.46.46,0,0,0-.14.35,16.15,16.15,0,0,0,0,2.2c0,.19,0,.42.25.46l4.54.06a.44.44,0,0,1,.18.32c.12.91-.09,2.1,0,3a.5.5,0,0,1-.44.26l-4.36,0a.46.46,0,0,0-.14.35,16.15,16.15,0,0,0,0,2.41c0,.29.08.48.4.53l4.5,0A.57.57,0,0,1,21,60c.09,1,0,2.24,0,3.29l-.35.22c-2.54-.18-5.37.23-7.87,0a.57.57,0,0,1-.42-.14l0-17.53.45-.19c2.53.16,5.3-.2,7.8,0A.68.68,0,0,1,20.91,45.78Z"/><path class="cls-2" d="M1,45.79a.59.59,0,0,1,.37-.1c2.51-.21,5.32.17,7.87,0a.41.41,0,0,1,.38.33c-.08,1,.11,2.1,0,3,0,.37-.18.43-.53.46-1.28.12-2.87-.16-4.11,0a.42.42,0,0,0-.37.26c.06.88-.13,2,0,2.83a.43.43,0,0,0,.22.35l4.28,0c.27,0,.43.12.46.39a18.85,18.85,0,0,1,0,2.91.4.4,0,0,1-.32.38l-4.43,0a.6.6,0,0,0-.21.49c-.17,1.89.13,4,0,6a.41.41,0,0,1-.4.38c-.87.14-2.07-.09-3,0a.59.59,0,0,1-.39-.47V46.29A.94.94,0,0,1,1,45.79Z"/><path class="cls-1" d="M78.73,0,76.06,15.78,69.69,9.09l-12.21,6.6-.18-.12c.63-4.41,3.28-9.45,8.24-9.75,2-.12,3.17.13,4.25,1.81,0,.08,0,.14.17.1a1.94,1.94,0,0,1,0-.34c.56-2.2.92-4.83,1.6-6.93A1.17,1.17,0,0,1,71.84,0Z"/><path class="cls-1" d="M58.89.48c-.74,4.65-1.45,9.32-2.26,14-.11.65-.11,1.66-.7,2-1.85,1.09-4.26,2-6.24,2.93-.37.18-.74.46-1.12.63L51.8.48Z"/><path class="cls-1" d="M75.46,19.84l-1.19-.91c-1.2-1.13-2.33-2.37-3.59-3.43-.8-.68-.91-.86-2-.45-3.69,1.42-7.37,3.69-11.07,5.17l-.27,0c.14-.62-.44-1.85.11-2.25,3-1.31,6-2.88,9-4.27.82-.38,2.4-1.22,3.26-1.13s1.81,1.41,2.42,2q1.65,1.67,3.35,3.27C76,18.48,75.41,19.17,75.46,19.84Z"/><path class="cls-1" d="M74.82,23.43,70.1,19.91l-1-.14-9.58,3.65c-.44,0-.49-.07-.75-.35s-.74-.94-.64-1.34l10.65-4.51a2.68,2.68,0,0,1,1.4.17c1.66,1.16,3.09,2.66,4.68,3.92C75.29,21.86,74.93,22.81,74.82,23.43Z"/><path class="cls-1" d="M55.86,18.73c-.06.47-.23,2.26-.56,2.5-2.54,1.12-5,2.5-7.57,3.47.12-.47.25-2.26.56-2.51Z"/><path class="cls-1" d="M56.66,29.8h1l0,.32a1.45,1.45,0,0,1,2-.11l.32.59c0-.18,0-.54.07-.67s.28,0,.37-.13.08-.67.22-.86l.86-.1v1h.87v.83l-.88.05v1.79c.14.28.73.12.84.27l0,.79c-2.25.59-1.79-1.11-1.83-2.64L60,30.76v2.87h-1V31.2c0-.54-.86-.6-1.22-.29a1.63,1.63,0,0,0-.22.37v2.35c-.3-.05-.72.11-1-.12Z"/><path class="cls-1" d="M74.82,33.55a1.51,1.51,0,0,1-.67.07c-.18,0-.26-.24-.39-.22s-.35.24-.59.29a1.63,1.63,0,0,1-2.09-1.54A2.31,2.31,0,0,1,71.72,30c.75-.6,1.37-.33,2.15,0V28.53c.31,0,.72-.12.95.12Zm-2-2.94c-.94.14-1,2.45.44,2.12C74.07,32.54,74.1,30.43,72.81,30.61Z"/><path class="cls-1" d="M51.88,28.53c.21,0,.86-.12.94.13l-.08,4.95c-.36.23-.92-.22-1-.21s-.31.25-.51.29c-1.48.3-2.18-.64-2.18-2,0-1.74,1.28-2.55,2.8-1.63Zm-.27,4c.42-.47.32-1.72-.35-1.88-1.45-.33-1.29,1.91-.54,2.06A1.1,1.1,0,0,0,51.61,32.57Z"/><path class="cls-1" d="M67.41,28.53v5.1c-.21,0-.55,0-.74,0s-.11-.23-.18-.23-.42.23-.59.28a1.62,1.62,0,0,1-2.12-1.15c-.39-1.93.68-3.63,2.68-2.47V28.65C66.69,28.41,67.11,28.57,67.41,28.53Zm-2,2.17c-.9.16-.76,1.93,0,2a.79.79,0,0,0,1-.49C66.66,31.48,66.37,30.52,65.4,30.7Z"/><path class="cls-1" d="M56.5,32.19H54.11c.31.9,1.38.48,2.07.44a1,1,0,0,1,.16.78c-1.67.76-3.48.19-3.35-1.89A1.83,1.83,0,1,1,56.5,32.19Zm-.88-.88a.8.8,0,0,0-1.59,0Z"/><path class="cls-1" d="M70.65,30.07a2.05,2.05,0,0,1,.29.47,19.05,19.05,0,0,1,0,3l-.72.07-.13-.31c-.3.07-.52.34-.84.39-1.21.2-1.81-.42-1.62-1.62.11-.71,1.52-.82,2.11-.93.13,0,.2.09.2-.12,0-1-2,.28-2.08-.64,0-.42.15-.5.51-.6A2.57,2.57,0,0,1,70.65,30.07ZM70,32c-.28,0-1.45.11-1.34.51A.72.72,0,0,0,70,32Z"/><path class="cls-1" d="M67.81,22.63c0,.75-1,1.43-1.62,1.77a5.44,5.44,0,0,1-4.59.54c0-.1,0-.25.13-.32a15.17,15.17,0,0,1,1.89-.89A13.8,13.8,0,0,1,67.81,22.63Z"/><path class="cls-1" d="M54.82,25.1h-4.1a.26.26,0,0,1,0-.36l4.46-1.87Z"/><rect class="cls-1" x="47.81" y="28.53" width="1.04" height="5.1"/><path class="cls-1" d="M63.43,29.8v3.83h-1V30s.09-.19.14-.2Z"/><rect class="cls-1" x="62.47" y="28.52" width="0.96" height="1.04"/><path class="cls-4" d="M118.35,57.87a13.1,13.1,0,1,1-13.09-13.09A13.1,13.1,0,0,1,118.35,57.87Z"/><path class="cls-5" d="M115.6,52.18H94.86a4.48,4.48,0,0,1,.32-.56,11.85,11.85,0,0,1,20.11,0A6.12,6.12,0,0,1,115.6,52.18Z"/><path class="cls-5" d="M115.57,63.61a3.25,3.25,0,0,1-.31.56,11.86,11.86,0,0,1-20.21-.26,1.24,1.24,0,0,1-.16-.3Z"/><path class="cls-6" d="M97.54,54.39v4.37a1.09,1.09,0,0,0,1.68.94,1.16,1.16,0,0,0,.45-.73V54.39h1.91v4.55a2.6,2.6,0,0,1-3,2.55c-1.82-.05-2.8-.78-2.93-2.67V54.39Z"/><path class="cls-6" d="M108.15,56.45l-1.68.41c-.39-1.42-2.07-1.26-2.32.2-.13.78-.16,2.53.81,2.77s1.43-.47,1.57-1.32l1.68.57A2.68,2.68,0,0,1,106,61.45c-2.56.43-4-1.32-3.86-3.75.09-2.27,1.23-3.62,3.61-3.43A2.64,2.64,0,0,1,108.15,56.45Z"/><path class="cls-6" d="M108.8,54.39h3.75c2-.06,2.46,2.7,1,3.66l-.58.26c.72.21,1,1.07,1.35,1.7.22.45.4.91.62,1.36h-2.16c-.3-.57-.56-1.17-.84-1.75s-.44-1.17-1.18-1.08v2.83H108.8Zm1.91,2.83h.93a3.34,3.34,0,0,0,.4-.1.7.7,0,0,0,.15-1.19,1,1,0,0,0-.32-.13h-1.16Z"/><path class="cls-7" d="M110.71,57.22V55.8h1.16a1,1,0,0,1,.32.13.7.7,0,0,1-.15,1.19,3.34,3.34,0,0,1-.4.1Z"/><path class="cls-8" d="M106.92,17.73v-.56a2.77,2.77,0,0,1-4.49-1.3c-.82-2.44,1.16-5.14,3.76-4.07l.73.47v-.56h1.53v6Zm-1.85-4.68c-1.77.28-1.63,3.39.35,3.39C107.57,16.44,107.51,12.67,105.07,13.05Z"/><path class="cls-8" d="M97,17.22v2.65H95.45V11.71H97v.56l.73-.47c3.18-1.28,5.16,2.87,3.12,5.16a2.72,2.72,0,0,1-3.13.69A7.6,7.6,0,0,0,97,17.22Zm1.21-4.17c-1.8.26-1.64,3.39.3,3.39C100.68,16.44,100.64,12.69,98.19,13.05Z"/><polygon class="cls-8" points="87.09 12.58 89.87 12.58 89.95 12.65 89.95 14.11 87.17 14.11 87.09 14.18 87.09 16.15 89.87 16.15 89.95 16.22 89.95 17.65 89.87 17.73 85.54 17.73 85.46 17.65 85.46 9.7 85.54 9.62 89.87 9.62 89.95 9.7 89.95 11.13 89.87 11.2 87.17 11.2 87.09 11.28 87.09 12.58"/><path class="cls-8" d="M92.48,11.57a2.45,2.45,0,0,1,2.2,1l-.94,1c-.11,0-.65-.78-1.3-.48s.8.94,1.06,1.09a2.21,2.21,0,0,1,1.29,1.47c.43,2.44-3.11,3-4.23,1.22l.9-1.05c.42.33.78.71,1.37.66.3,0,.57-.23.46-.56s-1.18-.74-1.52-1C90.14,13.81,90.56,11.75,92.48,11.57Z"/><path class="cls-8" d="M112.11,11.57A3.39,3.39,0,0,1,115.28,13a10,10,0,0,1-1.25.69c-.12,0-.41-.29-.58-.38a1.8,1.8,0,0,0-2.61,2.25,1.93,1.93,0,0,0,2.81.55c.12-.09.22-.3.38-.28a7.62,7.62,0,0,1,1.15.8,3.32,3.32,0,0,1-3.08,1.29A3.16,3.16,0,0,1,112.11,11.57Z"/><path class="cls-8" d="M122.11,12.93c0-.07,0-.08.06-.12.24-.24.77-.43,1-.7.19-.08.52.24.67.37A3.68,3.68,0,0,1,125,14.2c.35,1.54-1,2.74-2.07,3.55a7.84,7.84,0,0,1,1.67,1.58,4.78,4.78,0,0,1-1.24.62,10.86,10.86,0,0,0-1.68-1.34,9.19,9.19,0,0,0-1.12.8c-.15.12-.49.57-.64.54a8.73,8.73,0,0,1-1.15-.54c0-.08.11-.28.16-.35,1-1.27,4.35-2.79,4.68-4C123.84,14.12,122.8,13.32,122.11,12.93Z"/><path class="cls-8" d="M119.91,9.58a.14.14,0,0,1,.11,0c.08,0,.6.58.74.69a8.64,8.64,0,0,0,.88.61,6.35,6.35,0,0,0,1.68-1.31l1.29.58a7.76,7.76,0,0,1-2,1.85c-.77.55-2.92,1.75-2.92,2.79,0,.71,1,1.44,1.52,1.83,0,.08,0,.09-.08.12s-.83.59-.9.62c-.29.13-.46-.08-.67-.26a3.38,3.38,0,0,1-1.25-2.06c-.12-1.45,1-2.47,2.09-3.26,0-.08,0-.09-.09-.12-.23-.24-.64-.47-.91-.72a5.12,5.12,0,0,1-.63-.75c0-.07,0-.08.08-.11A10.4,10.4,0,0,1,119.91,9.58Z"/><rect class="cls-8" x="115.89" y="11.71" width="1.58" height="6.02"/><circle class="cls-8" cx="116.67" cy="10.29" r="1"/><path d="M93.7,22.45c-.18.23-1.53.28-1.89.33a6.71,6.71,0,0,0-.89.17.36.36,0,0,0-.14.27,6.89,6.89,0,0,0-.17,1.21.19.19,0,0,0,.15.16,16.91,16.91,0,0,0,2.82-.38.43.43,0,0,1,.33.64,3.68,3.68,0,0,1-1.39.22,8.55,8.55,0,0,1-2.57.17A.32.32,0,0,1,89.8,25a8.75,8.75,0,0,1,.29-1.79,22.42,22.42,0,0,0,.37-2.59c0-.22-.28-.39-.2-.65a.36.36,0,0,1,.28-.19c.35-.06.91,0,1.32-.06.6-.05,1.44-.28,2-.28.35,0,.68.24.45.59s-.32.13-.55.16-.58.12-.87.15a6.93,6.93,0,0,0-1.59.15A12,12,0,0,0,90.92,22l0,.1a3.52,3.52,0,0,0,.84,0c.36,0,1.76-.45,1.94-.09A.49.49,0,0,1,93.7,22.45Z"/><path d="M102.56,24.49c.08.1.31.15.29.35-.75,1.05-1.27-.31-1.25-1.05-.4.59-1.73,1.79-2.43,1.1-.45-.45-.22-1.28,0-1.79.36-.86,1.57-2.53,2.67-2.19.21.07.2.3.32.39s.35,0,.42.25-.22,1.43-.24,1.76A1.91,1.91,0,0,0,102.56,24.49Zm-1.21-2.93c-.6.07-1.59,1.59-1.66,2.16,0,.22-.06.54.15.66.41.17,1.4-1,1.58-1.37S102.05,21.48,101.35,21.56Z"/><path d="M114.51,21.41c.07.07.07.31.06.42,0,.7-.52,2.06,0,2.65.12.15.3.11.25.41,0,.13-.23.28-.35.31-.62.16-.88-.9-.82-1.36-.08,0-.1,0-.15.08a4.81,4.81,0,0,1-1,.88c-1.32.78-1.86-.16-1.47-1.43.27-.92,1.62-2.8,2.75-2.47.15,0,.25.32.36.4S114.45,21.35,114.51,21.41Zm-1.13.15c-.6.05-1.48,1.44-1.63,2-.22.82,0,1.09.75.55a3.85,3.85,0,0,0,1.22-1.74C113.78,22.08,113.8,21.52,113.38,21.56Z"/><path d="M95.85,20.9a6.77,6.77,0,0,1,.21,1c0,.11.3.66.39.68a4.65,4.65,0,0,0,1.16-1.18c.21-.27.36-.92.82-.6s-.12.91-.38,1.2-.82.79-1.22,1.17a3.76,3.76,0,0,0,.87.91c.27.21.89.39.51.82s-.84,0-1.1-.28-.53-.69-.86-1a6.62,6.62,0,0,0-.77.82c-.12.19-.37.84-.46.92a.38.38,0,0,1-.46-.06c-.4-.43.27-1.19.56-1.53s.53-.48.74-.73c-.26-.47-1-1.63-.59-2.12A.45.45,0,0,1,95.85,20.9Z"/><path d="M109.16,21.14c.36,0,1.36-.25,1.61,0s0,.48-.23.54-1.49,0-1.65.28a11,11,0,0,0-.38,1.66c-.07.69.08,1.14.82.72.17-.09,1.06-.92,1-.27,0,.25-.53.71-.74.85-.59.39-1.52.5-1.79-.31s.29-1.85.28-2.7c0-.05-.76.19-.89-.2-.23-.7.71-.38,1.1-.49a11.64,11.64,0,0,0,.45-1.49.37.37,0,0,1,.71.16C109.46,20.09,109.09,21.07,109.16,21.14Z"/><path d="M117.46,24.19a.19.19,0,0,0,0-.19c-.14-.28-1.3-.71-1.63-1.07-1-1.05,1.3-2.66,2.2-2.21a.43.43,0,0,1,.12.65c-.2.23-.31,0-.54,0a2.38,2.38,0,0,0-1,.42c-.87.67.64,1.12,1.07,1.42.87.61.63,1.29-.24,1.69-.44.2-2,.65-2.19.08s.89-.42,1.2-.45A2.73,2.73,0,0,0,117.46,24.19Z"/><path d="M105.69,21.56c-.3-.28-.9.66-1,.87-.24.42-.86,1.73-.28,2a1.28,1.28,0,0,0,1,0c.31-.11.8-.52,1-.56.37-.07.23.35.07.53a2.52,2.52,0,0,1-2.48.71c-1.56-.76.26-4.16,1.53-4.32.9-.11,1.19,1.37.68,1.6S105.84,21.72,105.69,21.56Z"/><rect class="cls-9" x="88.58" y="27.56" width="33.36" height="14.61"/><path class="cls-10" d="M94.55,32.6H92.83v2H91.26V29.31h3.81v1.25H92.83v.86h1.72Z"/><path class="cls-10" d="M100.28,34.58h-1.8l-.77-2H97.2v2H95.58V29.31h2.76a2.12,2.12,0,0,1,1.41.42,1.41,1.41,0,0,1,.51,1.13,1.6,1.6,0,0,1-.19.8,1.51,1.51,0,0,1-.75.62ZM97.2,31.43h.69a.87.87,0,0,0,.49-.12.42.42,0,0,0,.19-.38c0-.34-.21-.5-.62-.5H97.2Z"/><path class="cls-10" d="M104,34.58l-.3-1h-1.41l-.32,1h-1.31l1.63-5.27H104l1.65,5.27Zm-1.44-2.19h.86l-.43-1.53Z"/><path class="cls-10" d="M110.59,34.58h-1.31l-1.45-2.33a9.87,9.87,0,0,1-.56-1.09,3.45,3.45,0,0,1,.13.86v2.56h-1.31V29.31h1.52l1.23,1.93a7.21,7.21,0,0,1,.56,1,7.87,7.87,0,0,1-.12-1.38V29.31h1.31Z"/><path class="cls-10" d="M113.94,29.31v3.32a3.75,3.75,0,0,1-.14,1.16,1.11,1.11,0,0,1-.54.63,2,2,0,0,1-1.07.24,4,4,0,0,1-1.08-.13V33.27a2.06,2.06,0,0,0,.63.1.61.61,0,0,0,.49-.16.86.86,0,0,0,.15-.58V29.31Z"/><path class="cls-10" d="M117.61,34.58l-.3-1H115.9l-.31,1h-1.32l1.63-5.27h1.71l1.65,5.27Zm-1.43-2.19H117l-.43-1.53Z"/><path class="cls-10" d="M96.22,35.79v4.56h-1.3V37.09l-.85,3.26h-.88l-.88-3.26v3.26h-1V35.79h1.83l.66,2.42.63-2.42Z"/><path class="cls-10" d="M99,40.42a2.07,2.07,0,0,1-1.57-.64,2.37,2.37,0,0,1-.6-1.7,2.44,2.44,0,0,1,.58-1.69A2,2,0,0,1,99,35.72a2,2,0,0,1,1.55.63,2.33,2.33,0,0,1,.6,1.68,2.45,2.45,0,0,1-.61,1.74A2,2,0,0,1,99,40.42Zm0-1a.55.55,0,0,0,.51-.31A2.94,2.94,0,0,0,99.64,38c0-.8-.21-1.19-.64-1.19s-.68.45-.68,1.35S98.54,39.39,99,39.39Z"/><path class="cls-10" d="M105.8,40.35h-1.55l-.67-1.74h-.44v1.74h-1.4V35.79h2.38a1.83,1.83,0,0,1,1.23.37,1.21,1.21,0,0,1,.43,1,1.42,1.42,0,0,1-.16.7,1.33,1.33,0,0,1-.65.53Zm-2.66-2.72h.6a.69.69,0,0,0,.42-.11.35.35,0,0,0,.16-.32c0-.29-.18-.44-.54-.44h-.64Z"/><path class="cls-10" d="M109,40.35l-.25-.9H107.5l-.28.9h-1.13l1.4-4.56H109l1.43,4.56Zm-1.24-1.89h.74l-.37-1.33Z"/><path class="cls-10" d="M110.82,40.35V35.79h1.77a2.14,2.14,0,0,1,1.72.68,2.4,2.4,0,0,1,.57,1.58,2.32,2.32,0,0,1-.61,1.66,2.1,2.1,0,0,1-1.6.64Zm1.4-1.05h.37a.7.7,0,0,0,.58-.33,1.59,1.59,0,0,0,.24-.92,1.66,1.66,0,0,0-.21-.86.67.67,0,0,0-.61-.36h-.37Z"/><path class="cls-10" d="M117.83,40.35l-.25-.9h-1.22l-.28.9H115l1.4-4.56h1.48l1.43,4.56Zm-1.24-1.89h.74L117,37.13Z"/><text class="cls-11" transform="translate(46.82 74.3)"><tspan class="cls-12">3</tspan><tspan class="cls-13" x="5.64" y="0">7</tspan><tspan class="cls-14" x="10.43" y="0">,</tspan><tspan class="cls-15" x="13" y="0">1</tspan><tspan x="18.58" y="0">2%</tspan></text><text class="cls-11" transform="translate(2.33 97.39)">23,45%</text><text class="cls-11" transform="translate(88.35 97.37)">20<tspan class="cls-14" x="12.07" y="0">,</tspan><tspan class="cls-16" x="14.64" y="0">1</tspan><tspan x="19.72" y="0">7%</tspan></text></g></g></svg>